<svg width="106" height="83" viewBox="0 0 106 83" fill="none" xmlns="http://www.w3.org/2000/svg">
<path d="M4 60.25L29.795 34.455C30.8397 33.4103 32.0799 32.5816 33.4448 32.0163C34.8097 31.4509 36.2726 31.1599 37.75 31.1599C39.2274 31.1599 40.6903 31.4509 42.0552 32.0163C43.4201 32.5816 44.6603 33.4103 45.705 34.455L71.5 60.25M64 52.75L71.045 45.705C72.0897 44.6603 73.3299 43.8316 74.6948 43.2663C76.0597 42.7009 77.5226 42.4099 79 42.4099C80.4774 42.4099 81.9403 42.7009 83.3052 43.2663C84.6701 43.8316 85.9103 44.6603 86.955 45.705L101.5 60.25M11.5 79H94C95.9891 79 97.8968 78.2098 99.3033 76.8033C100.71 75.3968 101.5 73.4891 101.5 71.5V11.5C101.5 9.51088 100.71 7.60322 99.3033 6.1967C97.8968 4.79018 95.9891 4 94 4H11.5C9.51088 4 7.60322 4.79018 6.1967 6.1967C4.79018 7.60322 4 9.51088 4 11.5V71.5C4 73.4891 4.79018 75.3968 6.1967 76.8033C7.60322 78.2098 9.51088 79 11.5 79ZM64 22.75H64.04V22.79H64V22.75ZM65.875 22.75C65.875 23.2473 65.6775 23.7242 65.3258 24.0758C64.9742 24.4275 64.4973 24.625 64 24.625C63.5027 24.625 63.0258 24.4275 62.6742 24.0758C62.3225 23.7242 62.125 23.2473 62.125 22.75C62.125 22.2527 62.3225 21.7758 62.6742 21.4242C63.0258 21.0725 63.5027 20.875 64 20.875C64.4973 20.875 64.9742 21.0725 65.3258 21.4242C65.6775 21.7758 65.875 22.2527 65.875 22.75Z" stroke="#B7E23D" stroke-width="8" stroke-linecap="round" stroke-linejoin="round"/>
</svg>
