<svg width="87" height="91" viewBox="0 0 87 91" fill="none" xmlns="http://www.w3.org/2000/svg">
<path d="M32.4399 8.33444C32.8536 5.83522 35.0139 4 37.5419 4H49.4603C51.9883 4 54.1486 5.83522 54.5623 8.33444L55.5413 14.2413C55.8309 15.9658 56.98 17.4045 58.506 18.2529C58.8461 18.4374 59.1817 18.6357 59.5172 18.8386C61.0064 19.7423 62.8266 20.0236 64.4583 19.4103L70.0521 17.3077C71.1984 16.8752 72.4606 16.8649 73.6137 17.2787C74.7669 17.6924 75.7362 18.5034 76.3491 19.5671L82.3061 29.9283C82.9176 30.9921 83.1332 32.2391 82.9144 33.4473C82.6955 34.6556 82.0565 35.7468 81.111 36.5268L76.5008 40.3402C75.1541 41.4468 74.4876 43.1668 74.5198 44.9144C74.5272 45.3063 74.5272 45.6983 74.5198 46.0902C74.4876 47.8332 75.1541 49.5486 76.4962 50.6552L81.1156 54.4732C83.0645 56.0871 83.5701 58.8722 82.3106 61.0671L76.3445 71.4283C75.7325 72.4918 74.7643 73.303 73.6121 73.7175C72.4598 74.1321 71.1984 74.1232 70.0521 73.6923L64.4583 71.5897C62.8266 70.9764 61.011 71.2577 59.5126 72.1614C59.1794 72.3647 58.8422 72.5615 58.5014 72.7517C56.98 73.5955 55.8309 75.0342 55.5413 76.7587L54.5623 82.6609C54.1486 85.1648 51.9883 87 49.4603 87H37.5373C35.0093 87 32.849 85.1648 32.4353 82.6656L31.4563 76.7587C31.1713 75.0342 30.0222 73.5955 28.4962 72.7471C28.1554 72.5585 27.8183 72.3632 27.485 72.1614C25.9912 71.2577 24.1757 70.9764 22.5393 71.5897L16.9455 73.6923C15.7998 74.1236 14.5387 74.1332 13.3866 73.7195C12.2344 73.3058 11.2659 72.4956 10.6531 71.4329L4.6916 61.0717C4.08002 60.0079 3.86447 58.761 4.0833 57.5527C4.30213 56.3444 4.94115 55.2532 5.88666 54.4732L10.5014 50.6598C11.8436 49.5532 12.51 47.8332 12.4779 46.0856C12.4707 45.6937 12.4707 45.3017 12.4779 44.9098C12.51 43.1668 11.8436 41.4514 10.5014 40.3448L5.88666 36.5268C4.94229 35.747 4.30401 34.6567 4.08522 33.4494C3.86642 32.2422 4.08127 30.9962 4.6916 29.9329L10.6531 19.5717C11.2653 18.5072 12.2343 17.6953 13.3876 17.2806C14.5408 16.866 15.8033 16.8756 16.9501 17.3077L22.5393 19.4103C24.1757 20.0236 25.9912 19.7423 27.485 18.8386C27.816 18.6357 28.1561 18.4374 28.4962 18.2483C30.0222 17.4045 31.1713 15.9658 31.4563 14.2413L32.4399 8.33444Z" stroke="#B7E23D" stroke-width="8" stroke-linecap="round" stroke-linejoin="round"/>
<path d="M57 45.5C57 49.0804 55.5777 52.5142 53.0459 55.0459C50.5142 57.5777 47.0804 59 43.5 59C39.9196 59 36.4858 57.5777 33.9541 55.0459C31.4223 52.5142 30 49.0804 30 45.5C30 41.9196 31.4223 38.4858 33.9541 35.9541C36.4858 33.4223 39.9196 32 43.5 32C47.0804 32 50.5142 33.4223 53.0459 35.9541C55.5777 38.4858 57 41.9196 57 45.5Z" stroke="#B7E23D" stroke-width="8" stroke-linecap="round" stroke-linejoin="round"/>
</svg>
