<svg width="92" height="92" viewBox="0 0 92 92" fill="none" xmlns="http://www.w3.org/2000/svg">
<path d="M73.9138 76.822C67.5232 68.5384 57.3978 63.1875 46 63.1875C34.6022 63.1875 24.4768 68.5384 18.0862 76.822M73.9138 76.822C82.5563 69.2666 88 58.2577 88 46C88 23.2183 69.196 4.75 46 4.75C22.804 4.75 4 23.2183 4 46C4 58.2577 9.44367 69.2666 18.0862 76.822M73.9138 76.822C66.4936 83.3089 56.7154 87.25 46 87.25C35.2846 87.25 25.5064 83.3089 18.0862 76.822M60 35.6875C60 43.2814 53.732 49.4375 46 49.4375C38.268 49.4375 32 43.2814 32 35.6875C32 28.0936 38.268 21.9375 46 21.9375C53.732 21.9375 60 28.0936 60 35.6875Z" stroke="#B7E23D" stroke-width="8" stroke-linecap="round" stroke-linejoin="round"/>
</svg>
